<svg width="16" height="16" viewBox="0 0 16 16" fill="none" xmlns="http://www.w3.org/2000/svg">
<rect width="16" height="16" rx="4" fill="black"/>
<path d="M3.992 7V2.836H4.388L6.152 5.734H5.882L7.646 2.836H8.042V7H7.478V3.826L7.61 3.862L6.218 6.148H5.822L4.43 3.862L4.556 3.826V7H3.992ZM10.1412 7.06C9.8812 7.06 9.6452 6.996 9.4332 6.868C9.2212 6.736 9.0532 6.558 8.9292 6.334C8.8092 6.11 8.7492 5.858 8.7492 5.578C8.7492 5.298 8.8092 5.046 8.9292 4.822C9.0532 4.598 9.2192 4.42 9.4272 4.288C9.6392 4.156 9.8772 4.09 10.1412 4.09C10.3572 4.09 10.5492 4.136 10.7172 4.228C10.8892 4.316 11.0272 4.44 11.1312 4.6C11.2352 4.756 11.2932 4.938 11.3052 5.146V6.004C11.2932 6.208 11.2352 6.39 11.1312 6.55C11.0312 6.71 10.8952 6.836 10.7232 6.928C10.5552 7.016 10.3612 7.06 10.1412 7.06ZM10.2312 6.55C10.4992 6.55 10.7152 6.46 10.8792 6.28C11.0432 6.096 11.1252 5.862 11.1252 5.578C11.1252 5.382 11.0872 5.212 11.0112 5.068C10.9392 4.92 10.8352 4.806 10.6992 4.726C10.5632 4.642 10.4052 4.6 10.2252 4.6C10.0452 4.6 9.8852 4.642 9.7452 4.726C9.6092 4.81 9.5012 4.926 9.4212 5.074C9.3452 5.218 9.3072 5.384 9.3072 5.572C9.3072 5.764 9.3452 5.934 9.4212 6.082C9.5012 6.226 9.6112 6.34 9.7512 6.424C9.8912 6.508 10.0512 6.55 10.2312 6.55ZM11.0892 7V6.232L11.1912 5.536L11.0892 4.846V4.15H11.6352V7H11.0892Z" fill="white"/>
<path d="M3.992 13V8.836H4.556V13H3.992ZM6.68 13V8.836H7.244V13H6.68ZM4.376 11.104V10.588H6.818V11.104H4.376ZM9.27833 13.06C9.04633 13.06 8.83633 13.008 8.64833 12.904C8.46433 12.796 8.32033 12.648 8.21633 12.46C8.11233 12.272 8.06033 12.054 8.06033 11.806V10.15H8.60033V11.782C8.60033 11.938 8.62633 12.074 8.67833 12.19C8.73433 12.302 8.81433 12.388 8.91833 12.448C9.02233 12.508 9.14433 12.538 9.28433 12.538C9.49633 12.538 9.66233 12.472 9.78233 12.34C9.90233 12.204 9.96233 12.018 9.96233 11.782V10.15H10.5023V11.806C10.5023 12.054 10.4503 12.272 10.3463 12.46C10.2423 12.648 10.0983 12.796 9.91433 12.904C9.73433 13.008 9.52233 13.06 9.27833 13.06ZM11.7001 13.06C11.5881 13.06 11.4941 13.022 11.4181 12.946C11.3461 12.866 11.3101 12.772 11.3101 12.664C11.3101 12.552 11.3461 12.46 11.4181 12.388C11.4941 12.312 11.5881 12.274 11.7001 12.274C11.8121 12.274 11.9041 12.312 11.9761 12.388C12.0521 12.46 12.0901 12.552 12.0901 12.664C12.0901 12.772 12.0521 12.866 11.9761 12.946C11.9041 13.022 11.8121 13.06 11.7001 13.06Z" fill="white"/>
</svg>
